<?xml version="1.0" encoding="UTF-8" standalone="no"?>
<!-- Created with Inkscape (http://www.inkscape.org/) -->

<svg
   version="1.1"
   id="svg2"
   width="96"
   height="96"
   viewBox="0 0 96 96"
   sodipodi:docname="Buet Logo Vector.ai"
   xmlns:inkscape="http://www.inkscape.org/namespaces/inkscape"
   xmlns:sodipodi="http://sodipodi.sourceforge.net/DTD/sodipodi-0.dtd"
   xmlns="http://www.w3.org/2000/svg"
   xmlns:svg="http://www.w3.org/2000/svg">
  <defs
     id="defs6">
    <clipPath
       clipPathUnits="userSpaceOnUse"
       id="clipPath16">
      <path
         d="M 0,72 H 72 V 0 H 0 Z"
         id="path14" />
    </clipPath>
  </defs>
  <sodipodi:namedview
     id="namedview4"
     pagecolor="#ffffff"
     bordercolor="#000000"
     borderopacity="0.25"
     inkscape:showpageshadow="2"
     inkscape:pageopacity="0.0"
     inkscape:pagecheckerboard="0"
     inkscape:deskcolor="#d1d1d1" />
  <g
     id="g8"
     inkscape:groupmode="layer"
     inkscape:label="Buet Logo Vector"
     transform="matrix(1.3333333,0,0,-1.3333333,0,96)">
    <g
       id="g10">
      <g
         id="g12"
         clip-path="url(#clipPath16)">
        <g
           id="g18"
           transform="translate(57.2338,52.4362)">
          <path
             d="M 0,0 H 0.412 C 0.267,0.178 0.157,0.313 0,0.505 Z M -2.682,3.447 V 2.672 h 0.661 C -2.22,2.905 -2.425,3.146 -2.682,3.447 m -6.889,4.614 c 0.006,0.019 0.012,0.038 0.018,0.057 -0.394,0.177 -0.789,0.354 -1.205,0.541 V 8.061 Z M -46.523,-8.104 v 1.538 c -0.018,0.004 -0.037,0.007 -0.055,0.01 -0.178,-0.506 -0.356,-1.013 -0.544,-1.548 z m 2.704,6.707 -0.067,0.026 c -0.267,-0.431 -0.534,-0.861 -0.823,-1.327 h 0.89 z M 2.767,-3.651 C 2.748,-3.658 2.729,-3.665 2.709,-3.672 V -5.4 h 0.914 c -0.3,0.613 -0.579,1.181 -0.856,1.749 M -35.742,6.566 c -0.592,-0.41 -1.123,-0.778 -1.722,-1.193 h 1.722 z m 5.388,2.626 c -0.617,-0.25 -1.187,-0.487 -1.762,-0.711 -0.207,-0.08 -0.258,-0.205 -0.18,-0.414 h 1.942 z m 22.915,-49.174 c 0.708,0.463 1.336,0.876 1.965,1.288 -0.011,0.028 -0.022,0.057 -0.034,0.086 -0.596,0 -1.191,0.004 -1.787,-0.007 -0.049,-10e-4 -0.136,-0.096 -0.138,-0.15 -0.012,-0.374 -0.006,-0.747 -0.006,-1.217 m -5.391,-2.424 c 0.728,0.269 1.398,0.518 2.068,0.767 l 0.033,0.102 c -0.1,0.079 -0.198,0.22 -0.302,0.224 -0.529,0.023 -1.06,0.017 -1.59,0.004 -0.07,-0.002 -0.195,-0.094 -0.199,-0.151 -0.021,-0.291 -0.01,-0.584 -0.01,-0.946 m 13.476,9.883 c 0.032,-0.011 0.064,-0.022 0.096,-0.033 0.437,0.66 0.874,1.32 1.354,2.045 -0.492,0 -0.878,0.009 -1.263,-0.008 -0.064,-0.002 -0.177,-0.11 -0.179,-0.171 -0.013,-0.611 -0.008,-1.222 -0.008,-1.833 M -38.447,2.668 v 1.97 C -39.119,4.016 -39.729,3.455 -40.333,2.887 -40.38,2.843 -40.385,2.756 -40.417,2.668 Z m -8.068,-11.474 c -0.208,0 -0.381,-0.016 -0.551,0.004 -0.224,0.027 -0.307,-0.083 -0.352,-0.279 -0.106,-0.456 -0.226,-0.909 -0.335,-1.364 -0.027,-0.111 -0.035,-0.227 -0.053,-0.349 h 1.291 z m 33.067,18.44 V 8.067 h 1.961 c 0,0.266 0.006,0.509 -0.005,0.751 -0.003,0.057 -0.053,0.142 -0.102,0.16 -0.609,0.222 -1.22,0.434 -1.854,0.656 M -8.063,7.373 V 5.369 h 1.966 c 0,0.15 0.012,0.281 -0.004,0.41 -0.017,0.143 -0.011,0.356 -0.098,0.415 -0.594,0.402 -1.211,0.771 -1.864,1.179 m 6.473,-42.72 c 0.574,0.663 1.15,1.327 1.763,2.037 -0.15,0.052 -0.222,0.099 -0.295,0.099 -0.581,0.006 -1.162,0.008 -1.742,-0.003 -0.062,-0.001 -0.174,-0.094 -0.175,-0.146 -0.013,-0.61 -0.008,-1.22 -0.008,-1.81 0.159,-0.062 0.28,-0.109 0.457,-0.177 m -3.158,-2.719 c 0.028,-0.014 0.055,-0.027 0.082,-0.041 0.693,0.591 1.386,1.181 2.057,1.753 -0.077,0.179 -0.128,0.298 -0.191,0.446 h -1.268 c -0.68,0 -0.68,0 -0.68,-0.669 z M 2.013,-2.703 C 1.977,-2.513 1.987,-2.328 1.908,-2.196 1.643,-1.751 1.35,-1.322 1.057,-0.894 1.005,-0.817 0.911,-0.729 0.83,-0.723 0.561,-0.702 0.289,-0.715 0.017,-0.715 V -2.703 Z M -15.526,-43.13 c 0.722,0.185 1.384,0.355 2.003,0.513 v 1.314 c -0.64,0 -1.237,0.004 -1.833,-0.008 -0.058,-10e-4 -0.161,-0.103 -0.162,-0.159 -0.013,-0.527 -0.008,-1.054 -0.008,-1.66 M 4.588,-8.099 C 4.594,-8.05 4.608,-8.017 4.6,-7.992 4.391,-7.408 4.182,-6.825 3.965,-6.244 3.944,-6.189 3.87,-6.118 3.819,-6.116 3.448,-6.105 3.076,-6.11 2.7,-6.11 V -8.099 Z M -29.635,8.065 h 1.96 v 1.93 c -0.629,-0.182 -1.222,-0.35 -1.812,-0.533 -0.063,-0.02 -0.139,-0.124 -0.142,-0.191 -0.013,-0.394 -0.006,-0.789 -0.006,-1.206 m -16.881,-19.584 h -1.474 c -0.095,-0.661 -0.188,-1.31 -0.284,-1.974 h 1.758 z m 2.682,6.116 v 1.993 c -0.392,0 -0.757,0.003 -1.123,-0.004 -0.063,-10e-4 -0.159,-0.03 -0.183,-0.076 -0.321,-0.618 -0.632,-1.242 -0.972,-1.913 z M -5.38,2.674 h 1.976 c 0,0.368 10e-4,0.713 0,1.059 0,0.336 -0.415,0.876 -0.753,0.907 -0.402,0.035 -0.809,0.008 -1.223,0.008 z m -41.133,-16.873 h -1.093 c -0.718,0 -0.731,10e-4 -0.776,-0.724 -0.027,-0.42 -0.005,-0.844 -0.005,-1.268 h 1.874 z M -2.678,1.957 v -1.961 h 1.965 c 0,0.448 0.074,0.895 -0.027,1.296 -0.065,0.256 -0.359,0.572 -0.608,0.636 -0.41,0.106 -0.866,0.029 -1.33,0.029 m -30.381,3.411 v 1.98 c -0.427,0 -0.832,0.012 -1.236,-0.005 -0.262,-0.011 -0.722,-0.319 -0.724,-0.469 -0.009,-0.496 -0.003,-0.992 -0.003,-1.506 z m 16.909,2.701 h 1.969 c 0,0.551 0.005,1.079 -0.005,1.607 -10e-4,0.06 -0.068,0.157 -0.121,0.171 -0.605,0.153 -1.213,0.294 -1.843,0.444 z m -16.912,-8.806 h -1.945 v -1.964 h 1.945 z m -4.631,-1.965 h 1.942 v 1.975 h -1.942 z m -2.692,0.002 h 1.939 v 1.975 h -1.939 z m 35.003,2.704 h 1.962 v 1.934 h -1.962 z m -2.691,-0.007 h 1.953 v 1.946 h -1.953 z m -0.743,1.944 h -1.947 v -1.947 h 1.947 z M -13.457,0 h 1.947 v 1.941 h -1.947 z m -2.692,1.94 v -1.967 c 0.352,0 0.685,-0.004 1.018,0.002 0.302,0.005 0.713,-0.091 0.876,0.066 0.158,0.152 0.067,0.569 0.074,0.871 0.008,0.34 0.002,0.681 0.002,1.028 z m -0.748,0.001 h -1.946 v -1.948 h 1.946 z m -4.645,-1.947 h 1.958 v 1.942 h -1.958 z m -5.377,-0.001 h 1.947 V 1.94 h -1.947 z m -3.446,1.947 h -1.945 v -1.947 h 1.945 z m -2.689,-0.007 h -1.956 v -1.936 h 1.956 z m -2.688,-1.956 v 1.96 h -1.975 c 0,-0.612 -0.004,-1.201 0.007,-1.79 0.002,-0.058 0.1,-0.162 0.154,-0.163 0.598,-0.012 1.195,-0.007 1.814,-0.007 m -2.694,0 v 1.96 h -1.975 c 0,-0.613 -0.004,-1.202 0.007,-1.79 0.002,-0.058 0.1,-0.162 0.155,-0.163 0.597,-0.012 1.194,-0.007 1.813,-0.007 m 32.322,4.659 h -1.95 V 2.672 h 1.95 z m -4.638,-1.96 h 1.943 v 1.961 h -1.943 z m -0.757,1.962 h -1.943 V 2.671 h 1.943 z m -2.681,-0.01 h -1.958 v -1.95 h 1.958 z m 0.736,-8.05 v -2.003 h 1.17 c 0.798,0 0.798,0 0.798,0.787 v 1.216 z m 13.39,-27.09 c -0.627,0 -1.227,0.006 -1.825,-0.01 -0.055,-0.002 -0.149,-0.145 -0.153,-0.227 -0.019,-0.315 -0.008,-0.633 -0.008,-0.949 0,-0.824 0,-0.824 0.83,-0.824 h 1.156 z M -18.838,2.671 h 1.941 v 1.965 h -1.941 z m -2.69,0.003 h 1.947 v 1.962 h -1.947 z m -0.747,1.959 h -1.946 V 2.675 h 1.946 z m -4.642,-1.96 h 1.937 v 1.962 h -1.937 z m -6.132,1.962 h -1.948 V 2.664 h 1.948 z m -2.699,0.004 h -1.947 V 2.67 h 1.947 z M -8.807,7.33 h -1.947 V 5.371 h 1.947 z m -4.654,-1.961 h 1.95 v 1.963 h -1.95 z M -14.2,7.335 h -1.947 v -1.97 h 1.947 z m -2.691,-0.001 h -1.948 V 5.367 h 1.948 z m 16.814,-37.157 v 2.007 c -0.62,0 -1.219,0.005 -1.819,-0.009 -0.052,-0.002 -0.145,-0.132 -0.146,-0.203 -0.013,-0.531 -0.013,-1.062 0,-1.593 0.002,-0.068 0.1,-0.192 0.156,-0.193 0.598,-0.014 1.197,-0.009 1.809,-0.009 M -19.584,7.334 h -1.948 V 5.367 h 1.948 z m -2.69,-0.003 h -1.948 v -1.96 h 1.948 z m -2.704,0.002 h -1.939 V 5.361 h 1.939 z m -2.685,0 h -1.948 V 5.369 h 1.948 z m -4.65,-1.961 h 1.957 v 1.957 h -1.957 z M 0.006,-16.213 c 0.628,0 1.225,-0.004 1.823,0.006 0.052,0.001 0.146,0.091 0.147,0.141 0.01,0.608 0.006,1.217 0.006,1.843 H 0.006 Z m -2.683,0.018 h 1.947 v 1.977 h -1.947 z m -2.698,1.982 v -2.003 h 1.2 c 0.771,0 0.771,0 0.771,0.784 v 1.219 z m -2.698,-2 c 0.624,0 1.222,-0.005 1.819,0.009 0.053,0.001 0.145,0.126 0.149,0.197 0.017,0.305 0.007,0.611 0.008,0.917 v 0.868 h -1.976 z m -2.69,0.037 h 1.946 v 1.957 h -1.946 z m -0.742,1.952 h -1.946 v -1.972 h 1.946 z m -2.693,10e-4 h -1.946 v -1.973 h 1.946 z m -2.695,0 h -1.946 v -1.974 h 1.946 z m -4.638,-1.973 h 1.946 v 1.977 h -1.946 z m -8.839,1.973 h -1.937 v -1.973 h 1.937 z m -10.042,0.003 c 0,-0.496 -0.004,-0.971 10e-4,-1.447 0.007,-0.633 -0.089,-0.541 0.549,-0.548 0.474,-0.005 0.948,-0.001 1.417,-0.001 v 1.996 z m 7.357,5.396 h -1.948 v -1.975 h 1.948 z m 33.059,-4.694 c 0.623,0 1.211,-0.004 1.799,0.007 0.061,10e-4 0.171,0.094 0.172,0.146 0.012,0.608 0.007,1.216 0.007,1.838 H 0.004 Z m -2.687,-0.002 h 1.32 c 0.654,0 0.654,0 0.654,0.66 v 1.338 h -1.974 z m -2.692,2.004 v -2.003 c 0.566,0 1.114,0.013 1.659,-0.006 0.266,-0.01 0.331,0.091 0.317,0.335 -0.018,0.315 -0.005,0.631 -0.005,0.946 v 0.728 z m -2.694,-10e-4 v -1.963 c 0.044,-0.015 0.072,-0.033 0.1,-0.033 0.407,-0.004 0.813,-0.006 1.22,-0.006 0.652,-10e-4 0.652,-10e-4 0.652,0.66 v 1.342 z m -0.743,-0.011 h -1.944 v -1.969 h 1.944 z m -2.689,-0.002 h -1.947 v -1.967 h 1.947 z m -2.692,0.007 h -1.956 v -1.97 h 1.956 z m -4.654,-1.974 h 1.953 v 1.967 h -1.953 z m -0.735,1.972 h -1.952 v -1.965 h 1.952 z m -12.729,-1.969 h 1.945 v 1.971 h -1.945 z m -6.13,-0.011 v 2.003 c -0.505,0 -0.991,0.002 -1.476,-10e-4 -0.559,-0.004 -0.489,0.07 -0.495,-0.48 -0.003,-0.265 0,-0.529 0,-0.794 v -0.728 z M 1.967,-8.831 H 0.015 v -1.966 h 1.952 z m -2.705,10e-4 h -1.937 v -1.973 h 1.937 z m -2.683,0.003 h -1.951 v -1.97 h 1.951 z m -4.651,-1.969 h 1.949 v 1.969 h -1.949 z m -2.682,0.002 h 1.935 v 1.975 h -1.935 z m -0.752,1.96 h -1.949 v -1.954 h 1.949 z m -4.648,-1.961 h 1.948 v 1.966 h -1.948 z m -2.69,0.004 h 1.953 v 1.964 h -1.953 z m -2.689,-0.006 h 1.943 v 1.972 h -1.943 z m -8.837,1.964 h -1.942 v -1.965 h 1.942 z m -1.933,11.507 h 1.948 v 1.962 h -1.948 z m -8.093,-13.468 h 1.95 v 1.975 h -1.95 z m 40.407,2.672 h 1.26 c 0.714,0 0.714,0 0.714,0.722 v 1.274 H 0.011 Z m -2.694,0 h 1.321 c 0.653,0 0.653,0 0.653,0.661 v 1.335 h -1.974 z m -2.693,0 h 1.38 c 0.592,0 0.592,0 0.592,0.599 v 1.398 h -1.972 z m -2.711,0 c 0.509,0 0.984,-0.003 1.459,10e-4 0.62,0.006 0.523,-0.075 0.529,0.537 0.006,0.483 0.002,0.967 0.002,1.459 h -1.99 v -1.661 z m -0.73,1.997 h -1.946 v -1.976 h 1.946 z m -2.693,0 h -1.946 v -1.976 h 1.946 z m -2.698,-0.004 h -1.937 v -1.973 h 1.937 z m -4.634,-1.965 h 1.944 v 1.968 h -1.944 z m -2.7,-0.007 h 1.957 v 1.97 h -1.957 z m -8.826,-0.018 v 1.991 h -1.961 c 0,-0.62 -0.004,-1.218 0.007,-1.816 0.001,-0.059 0.096,-0.166 0.15,-0.167 0.596,-0.012 1.193,-0.008 1.804,-0.008 m -4.635,0.021 h 1.947 v 1.974 h -1.947 z m -2.699,-10e-4 h 1.953 v 1.964 h -1.953 z m -0.746,-0.02 v 1.991 h -1.963 c 0,-0.621 -0.004,-1.219 0.007,-1.818 0.001,-0.058 0.098,-0.164 0.153,-0.165 0.596,-0.012 1.194,-0.008 1.803,-0.008 M 0.013,-3.422 V -5.425 H 1.55 c 0.435,0 0.435,0 0.435,0.421 0,0.285 0,0.57 0,0.855 v 0.727 z m -0.742,-0.011 h -1.949 v -1.972 h 1.949 z M -3.424,-3.435 H -5.37 v -1.969 h 1.946 z m -4.651,-1.968 h 1.957 v 1.968 h -1.957 z m -0.719,1.971 h -1.965 v -1.99 c 0.617,0 1.214,-0.004 1.811,0.006 0.052,0.001 0.146,0.09 0.147,0.14 0.01,0.608 0.007,1.216 0.007,1.844 m -7.351,-1.973 h 1.946 v 1.976 h -1.946 z m -0.753,1.976 h -1.945 v -1.976 h 1.945 z m -2.694,-0.001 h -1.943 v -1.976 h 1.943 z m -10.776,-1.992 v 1.99 h -1.961 c 0,-0.619 -0.004,-1.218 0.007,-1.816 0.001,-0.059 0.096,-0.166 0.15,-0.167 0.597,-0.012 1.194,-0.007 1.804,-0.007 m -2.693,0 v 1.99 h -1.962 c 0,-0.619 -0.004,-1.218 0.007,-1.817 10e-4,-0.058 0.097,-0.165 0.151,-0.166 0.597,-0.012 1.194,-0.007 1.804,-0.007 m -4.656,2 c 0,-0.631 -0.006,-1.229 0.01,-1.828 10e-4,-0.06 0.134,-0.161 0.211,-0.167 0.294,-0.02 0.589,-0.008 0.884,-0.008 h 0.858 v 2.003 z m -2.694,0 c 0,-0.63 -0.006,-1.229 0.01,-1.828 0.002,-0.06 0.134,-0.161 0.212,-0.167 0.293,-0.02 0.588,-0.008 0.883,-0.008 h 0.858 v 2.003 z m 37.72,0.73 h 1.96 v 1.951 h -1.96 z m -2.68,-0.009 h 1.942 v 1.974 h -1.942 z m -2.695,-0.002 h 1.945 v 1.974 h -1.945 z m -0.741,1.968 h -1.949 v -1.966 h 1.949 z m -2.699,-0.006 h -1.95 v -1.952 h 1.95 z m -4.652,-1.952 h 1.958 v 1.952 h -1.958 z m -2.68,-0.009 h 1.941 v 1.974 h -1.941 z m -0.751,1.97 h -1.944 v -1.971 h 1.944 z m -7.336,-1.964 h 1.943 v 1.958 h -1.943 z m -3.441,1.961 h -1.937 V -2.7 h 1.937 z M -5.458,-35.91 c -0.626,0 -1.224,0.006 -1.821,-0.01 -0.056,-0.002 -0.151,-0.143 -0.156,-0.225 -0.019,-0.293 -0.008,-0.59 -0.008,-0.885 0,-0.29 0,-0.579 0,-0.866 h 1.985 z m -9.047,3.389 c 0.234,0 0.468,0.009 0.701,-0.003 0.201,-0.012 0.295,0.042 0.288,0.268 -0.015,0.499 -0.01,0.998 -0.002,1.498 0.004,0.182 -0.054,0.255 -0.242,0.251 -0.509,-0.008 -1.018,-0.006 -1.526,0 -0.162,0.001 -0.246,-0.045 -0.243,-0.224 0.006,-0.519 0.005,-1.039 0,-1.559 -0.002,-0.166 0.054,-0.241 0.23,-0.234 0.264,0.01 0.529,0.003 0.794,0.003 m -1.709,1.007 c 0,0.255 -0.006,0.51 0.003,0.764 0.005,0.164 -0.041,0.245 -0.222,0.243 -0.518,-0.008 -1.038,-0.007 -1.556,0 -0.17,0.002 -0.237,-0.062 -0.235,-0.233 0.006,-0.519 0.004,-1.039 0.001,-1.559 -0.001,-0.147 0.043,-0.226 0.208,-0.224 0.53,0.006 1.059,0.005 1.588,0 0.156,-0.002 0.219,0.056 0.215,0.214 -0.008,0.265 -0.002,0.53 -0.002,0.795 m 5.362,-9.099 v 2.006 c -0.622,0 -1.22,0.004 -1.818,-0.008 -0.055,-10e-4 -0.153,-0.107 -0.154,-0.167 -0.012,-0.55 -0.013,-1.1 0,-1.649 0.002,-0.063 0.113,-0.173 0.176,-0.174 0.588,-0.014 1.177,-0.008 1.796,-0.008 m -2.686,2.006 c -0.63,0 -1.228,0.005 -1.826,-0.009 -0.056,-0.002 -0.154,-0.127 -0.156,-0.196 -0.013,-0.529 -0.013,-1.06 0,-1.589 10e-4,-0.072 0.094,-0.201 0.147,-0.202 0.606,-0.015 1.213,-0.009 1.835,-0.009 z m 5.379,8.783 v 2.009 c -0.623,0 -1.221,0.005 -1.819,-0.009 -0.055,-0.002 -0.15,-0.129 -0.152,-0.199 -0.013,-0.53 -0.014,-1.06 0.001,-1.589 0.003,-0.072 0.113,-0.201 0.177,-0.202 0.588,-0.017 1.176,-0.01 1.793,-0.01 m -2.67,2.01 c -0.637,0 -1.225,0.006 -1.813,-0.009 -0.065,-0.002 -0.18,-0.129 -0.182,-0.2 -0.015,-0.53 -0.015,-1.06 0,-1.589 0.002,-0.073 0.114,-0.201 0.178,-0.202 0.549,-0.017 1.099,-0.015 1.647,-0.002 0.058,10e-4 0.162,0.099 0.163,0.154 0.012,0.6 0.007,1.199 0.007,1.848 m 5.386,-7.395 c 0,0.637 0.006,1.246 -0.009,1.855 -0.001,0.05 -0.132,0.137 -0.206,0.141 -0.335,0.015 -0.671,0.007 -1.008,0.007 -0.777,0 -0.777,0 -0.777,-0.784 v -1.219 z m -2.708,-0.701 c -0.627,0 -1.225,0.004 -1.822,-0.007 -0.056,-0.002 -0.154,-0.107 -0.156,-0.166 -0.012,-0.55 -0.012,-1.1 -0.001,-1.649 0.002,-0.062 0.092,-0.175 0.143,-0.176 0.606,-0.012 1.213,-0.008 1.836,-0.008 z m -4.68,-1.98 h 1.985 v 1.978 c -0.626,0 -1.234,0.003 -1.841,-0.007 -0.048,-0.001 -0.136,-0.099 -0.137,-0.152 -0.01,-0.599 -0.007,-1.198 -0.007,-1.819 m -0.708,1.98 c -0.625,0 -1.223,0.005 -1.82,-0.009 -0.058,-0.001 -0.159,-0.124 -0.161,-0.192 -0.013,-0.539 -0.011,-1.079 0,-1.619 10e-4,-0.063 0.092,-0.176 0.142,-0.177 0.607,-0.013 1.214,-0.009 1.839,-0.009 z m -1.985,6.087 c 0.647,0 1.245,-0.005 1.843,0.009 0.055,0.002 0.151,0.126 0.153,0.194 0.013,0.53 0.004,1.06 0.009,1.59 0.002,0.155 -0.054,0.22 -0.211,0.218 -0.53,-0.004 -1.059,0.004 -1.587,-0.009 -0.071,-10e-4 -0.197,-0.098 -0.199,-0.153 -0.014,-0.599 -0.008,-1.198 -0.008,-1.849 m -0.69,2.008 c -0.646,0 -1.244,0.005 -1.842,-0.009 -0.056,-10e-4 -0.156,-0.125 -0.158,-0.194 -0.014,-0.53 -0.005,-1.06 -0.009,-1.59 -0.001,-0.152 0.054,-0.221 0.214,-0.219 0.529,0.006 1.059,-0.005 1.587,0.011 0.071,0.002 0.197,0.115 0.198,0.179 0.016,0.59 0.01,1.18 0.01,1.822 m 11.484,-7.377 h 1.965 v 1.961 H -4.73 Z m 1.935,5.387 c 0.019,0.036 0.036,0.054 0.036,0.071 0.005,0.428 0.01,0.855 0.011,1.282 0.002,0.64 0,0.64 -0.641,0.64 h -1.332 v -1.993 z m -5.361,-5.415 v 2.012 c -0.62,0 -1.219,0.004 -1.817,-0.007 -0.055,-0.002 -0.154,-0.107 -0.156,-0.166 -0.011,-0.56 -0.011,-1.121 0.003,-1.682 10e-4,-0.054 0.107,-0.149 0.167,-0.15 0.589,-0.012 1.179,-0.007 1.803,-0.007 m -4.675,0.028 h 2.003 c 0,0.62 0.005,1.211 -0.008,1.801 -10e-4,0.062 -0.111,0.174 -0.173,0.176 -0.55,0.013 -1.1,0.012 -1.65,0 -0.058,-10e-4 -0.163,-0.101 -0.164,-0.158 -0.012,-0.599 -0.008,-1.199 -0.008,-1.819 m -2.697,-0.027 c 0.651,0 1.25,-0.007 1.849,0.01 0.054,0.001 0.149,0.145 0.151,0.224 0.014,0.51 -10e-4,1.02 0.011,1.53 0.006,0.215 -0.09,0.256 -0.275,0.251 -0.396,-0.008 -0.793,0.002 -1.191,-0.003 -0.618,-0.006 -0.539,0.086 -0.544,-0.56 -0.004,-0.475 -0.001,-0.951 -0.001,-1.452 m 10.061,5.411 v 1.994 c -0.615,0 -1.203,0.004 -1.791,-0.007 -0.061,-10e-4 -0.172,-0.094 -0.173,-0.146 -0.012,-0.608 -0.007,-1.216 -0.007,-1.841 z m 0.723,-2.688 h 1.981 v 1.984 c -0.622,0 -1.228,0.003 -1.835,-0.007 -0.049,-0.001 -0.138,-0.096 -0.139,-0.148 -0.01,-0.607 -0.007,-1.215 -0.007,-1.829 m -0.714,1.983 c -0.624,0 -1.23,0.003 -1.837,-0.006 -0.048,0 -0.135,-0.078 -0.136,-0.121 -0.008,-0.618 -0.006,-1.235 -0.006,-1.854 h 1.979 z m -4.673,-1.982 h 1.98 v 1.982 c -0.623,0 -1.23,0.003 -1.836,-0.005 -0.049,-10e-4 -0.138,-0.077 -0.138,-0.12 -0.009,-0.617 -0.006,-1.235 -0.006,-1.857 m -0.696,0.983 c 0,0.254 -0.006,0.509 0.002,0.763 0.006,0.165 -0.042,0.244 -0.221,0.242 -0.519,-0.008 -1.038,-0.007 -1.557,0 -0.172,0.002 -0.233,-0.066 -0.232,-0.234 0.005,-0.52 0.004,-1.039 0.001,-1.559 0,-0.147 0.043,-0.225 0.209,-0.223 0.529,0.006 1.058,0.005 1.587,0 0.159,-0.002 0.217,0.059 0.212,0.216 -0.007,0.265 -0.002,0.53 -10e-4,0.795 m -7.392,-9.101 c 0.643,0 1.241,-0.004 1.84,0.007 0.055,0.002 0.156,0.103 0.157,0.16 0.012,0.598 0.007,1.197 0.007,1.838 -0.639,0 -1.246,0.004 -1.853,-0.007 -0.051,-10e-4 -0.143,-0.094 -0.144,-0.146 -0.011,-0.607 -0.007,-1.215 -0.007,-1.852 m 2.005,4.703 c -0.643,0 -1.241,0.005 -1.839,-0.009 -0.057,-0.001 -0.159,-0.123 -0.161,-0.191 -0.013,-0.54 -0.014,-1.08 0.002,-1.62 0.002,-0.064 0.129,-0.177 0.2,-0.179 0.529,-0.015 1.058,-0.015 1.587,0 0.072,0.002 0.199,0.112 0.201,0.175 0.016,0.589 0.01,1.18 0.01,1.824 m -2.005,0.69 c 0.637,0 1.227,-0.007 1.816,0.009 0.064,10e-4 0.178,0.126 0.18,0.195 0.016,0.531 0.006,1.061 0.011,1.592 0.002,0.156 -0.054,0.22 -0.212,0.219 -0.53,-0.004 -1.06,0.004 -1.589,-0.009 -0.07,-0.002 -0.196,-0.099 -0.197,-0.155 -0.015,-0.6 -0.009,-1.2 -0.009,-1.851 m 10.111,-3.386 c -0.666,0 -1.264,0.007 -1.861,-0.012 -0.059,-0.002 -0.158,-0.161 -0.161,-0.25 -0.016,-0.488 0.003,-0.978 -0.013,-1.466 -0.007,-0.238 0.087,-0.309 0.305,-0.282 0.267,0.034 0.504,-0.013 0.633,-0.305 0.395,0.208 0.771,0.406 1.097,0.578 z m -10.113,-4.96 c 0.705,0.107 1.362,0.206 2.007,0.303 0,0.605 -0.004,1.163 0.003,1.722 0.002,0.163 -0.042,0.244 -0.221,0.242 -0.528,-0.007 -1.057,0.004 -1.585,-0.012 -0.069,-0.002 -0.194,-0.12 -0.195,-0.187 -0.015,-0.669 -0.009,-1.339 -0.009,-2.068 m -2.888,2.952 c 0.692,0 1.352,0.004 2.011,-0.002 0.178,-10e-4 0.193,0.1 0.192,0.237 -0.003,0.387 -0.001,0.775 -0.001,1.162 0,0.613 0,0.613 -0.612,0.613 h -1.59 z m 0.001,2.698 c 0.699,0 1.368,-0.004 2.038,0.007 0.055,10e-4 0.153,0.105 0.154,0.162 0.013,0.551 0.013,1.101 0.001,1.651 -0.001,0.062 -0.092,0.175 -0.143,0.176 -0.678,0.012 -1.357,0.008 -2.05,0.008 z m 0,5.396 c 0.701,0 1.371,-0.003 2.04,0.008 0.054,10e-4 0.151,0.107 0.153,0.165 0.012,0.551 0.012,1.101 0,1.652 -0.001,0.062 -0.093,0.174 -0.144,0.174 -0.678,0.012 -1.357,0.008 -2.049,0.008 z m -0.001,-2.7 c 0.696,0 1.358,-0.006 2.018,0.009 0.063,0.002 0.171,0.128 0.175,0.202 0.02,0.316 0.015,0.633 0.007,0.949 -0.006,0.271 0.073,0.645 -0.07,0.786 -0.146,0.142 -0.516,0.063 -0.789,0.066 -0.444,0.007 -0.889,0.002 -1.341,0.002 z m 0.001,5.396 c 0.697,0 1.358,-0.006 2.018,0.01 0.062,0.001 0.172,0.13 0.174,0.203 0.016,0.519 0.002,1.04 0.012,1.559 0.004,0.196 -0.078,0.244 -0.254,0.241 -0.438,-0.007 -0.876,-0.001 -1.314,-0.001 h -0.636 z m -5.833,37.89 h 1.967 v 2.437 c -0.615,-0.108 -1.206,-0.206 -1.793,-0.323 -0.068,-0.013 -0.166,-0.128 -0.167,-0.198 -0.013,-0.63 -0.007,-1.262 -0.007,-1.916 M 3.526,-27.812 H 1.425 c -0.78,0 -0.78,0 -0.78,-0.779 v -1.249 c 0.611,0 1.168,-0.003 1.725,0.005 0.053,0.001 0.128,0.058 0.155,0.109 0.324,0.608 0.64,1.221 1.001,1.914 M -16.873,8.057 v 1.799 c 0,0.537 0.001,0.547 -0.53,0.624 -0.476,0.069 -0.956,0.112 -1.432,0.167 V 8.057 Z M 2.703,-10.799 h 2.675 c -0.168,0.65 -0.324,1.267 -0.492,1.882 -0.012,0.047 -0.104,0.104 -0.16,0.104 -0.668,0.007 -1.337,0.005 -2.023,0.005 z m -33.392,-19.026 c 0.336,0 0.673,0.005 1.009,-0.002 0.163,-0.004 0.243,0.044 0.242,0.223 -0.007,0.521 -0.007,1.042 0,1.562 10e-4,0.174 -0.07,0.232 -0.237,0.231 -0.673,-0.005 -1.345,-0.005 -2.018,0 -0.162,0.001 -0.244,-0.047 -0.242,-0.226 0.007,-0.52 0.006,-1.041 0,-1.561 -0.002,-0.173 0.068,-0.234 0.237,-0.229 0.336,0.008 0.673,0.002 1.009,0.002 m -8.103,0 c 0.336,0 0.672,0.006 1.009,-0.003 0.172,-0.004 0.265,0.037 0.262,0.235 -0.008,0.521 0.006,1.042 -0.012,1.562 -0.003,0.074 -0.132,0.206 -0.205,0.208 -0.683,0.016 -1.366,0.007 -2.049,0.012 -0.171,0.001 -0.233,-0.067 -0.231,-0.236 0.007,-0.511 0.008,-1.021 0,-1.531 -0.003,-0.184 0.06,-0.256 0.247,-0.25 0.326,0.011 0.652,0.003 0.979,0.003 M -24.22,10.596 V 8.07 h 1.933 v 2.667 c -0.664,-0.048 -1.3,-0.095 -1.933,-0.141 m 3.121,-51.899 v -2.424 c 0.743,0.032 1.46,0.063 2.191,0.096 0,0.736 0.006,1.428 -0.008,2.119 -0.001,0.071 -0.116,0.199 -0.18,0.2 -0.66,0.015 -1.321,0.009 -2.003,0.009 m -0.433,49.366 h 1.941 v 2.654 h -1.941 z M 5.518,-11.523 H 2.706 v -1.971 h 3.099 c -0.098,0.673 -0.192,1.316 -0.287,1.971 m -37.451,-20.253 c 0,-0.337 0.006,-0.674 -0.002,-1.011 -0.004,-0.174 0.042,-0.261 0.238,-0.258 0.673,0.008 1.346,0.005 2.019,0.001 0.163,-0.002 0.241,0.045 0.24,0.224 -0.007,0.695 -0.006,1.389 0,2.083 10e-4,0.175 -0.072,0.231 -0.238,0.229 -0.673,-0.005 -1.346,-0.006 -2.019,10e-4 -0.194,0.003 -0.244,-0.083 -0.24,-0.259 0.008,-0.337 0.002,-0.673 0.002,-1.01 m -8.079,-1.223 h 2.487 c 0,0.785 0.005,1.548 -0.009,2.312 -0.002,0.06 -0.138,0.168 -0.214,0.169 -0.683,0.014 -1.366,0.013 -2.048,0.001 -0.073,-0.001 -0.206,-0.093 -0.206,-0.145 -0.014,-0.773 -0.01,-1.546 -0.01,-2.337 m 42.71,16.806 h 3.267 c -0.028,0.591 -0.065,1.158 -0.078,1.725 -0.005,0.219 -0.089,0.275 -0.293,0.273 -0.885,-0.009 -1.77,-0.003 -2.655,-0.005 -0.077,-0.001 -0.154,-0.018 -0.241,-0.028 z m -51.143,-0.723 c 0.051,-0.738 0.088,-1.44 0.15,-2.14 0.24,-2.713 0.902,-5.321 1.929,-7.841 0.073,-0.18 0.162,-0.237 0.356,-0.236 10.045,0.009 20.09,0.013 30.135,0.015 3.436,10e-4 6.871,-0.008 10.307,-0.01 3.018,-0.002 6.036,0.003 9.054,-0.007 0.243,-10e-4 0.35,0.067 0.443,0.293 1.177,2.889 1.832,5.893 2,9.007 0.016,0.3 0.002,0.603 0.002,0.919 z m -8.779,-0.875 v 0.061 l -0.006,0.161 c 0,0.694 0.007,1.355 -0.003,2.017 -0.004,0.23 0.069,0.332 0.306,0.393 1.014,0.263 2.021,0.556 3.034,0.827 0.186,0.05 0.269,0.13 0.283,0.327 0.035,0.499 0.074,0.998 0.145,1.493 0.034,0.232 -0.052,0.321 -0.243,0.41 -1.08,0.504 -1.983,0.945 -3.059,1.458 l 0.034,0.19 c 0.129,0.651 0.268,1.288 0.378,1.93 0.047,0.279 0.158,0.381 0.453,0.389 1.009,0.028 2.017,0.095 3.025,0.137 0.215,0.009 0.316,0.088 0.372,0.305 0.126,0.493 0.281,0.979 0.435,1.464 0.046,0.145 0.039,0.234 -0.096,0.333 -0.837,0.617 -1.66,1.254 -2.505,1.86 -0.213,0.153 -0.247,0.287 -0.154,0.508 0.245,0.583 0.493,1.164 0.716,1.756 0.088,0.232 0.208,0.265 0.437,0.229 1.035,-0.165 2.075,-0.306 3.112,-0.46 0.161,-0.024 0.257,0.007 0.338,0.169 0.237,0.474 0.491,0.94 0.756,1.4 0.089,0.155 0.065,0.246 -0.048,0.37 -0.672,0.741 -1.334,1.491 -2.007,2.231 -0.059,0.065 -0.173,0.081 -0.296,0.135 -0.045,0.214 0.037,0.416 0.223,0.644 0.365,0.449 0.672,0.948 0.983,1.439 0.119,0.187 0.229,0.197 0.422,0.127 0.995,-0.361 1.996,-0.706 2.994,-1.061 0.143,-0.051 0.25,-0.078 0.368,0.073 0.339,0.435 0.702,0.851 1.044,1.282 0.049,0.062 0.075,0.199 0.041,0.26 -0.528,0.909 -1.044,1.825 -1.618,2.704 -0.146,0.221 -0.187,0.403 -0.174,0.561 0.138,0.071 0.249,0.1 0.321,0.169 0.412,0.396 0.821,0.796 1.217,1.208 0.153,0.159 0.267,0.177 0.463,0.058 0.896,-0.547 1.804,-1.073 2.707,-1.611 0.129,-0.076 0.224,-0.134 0.372,-0.004 0.405,0.358 0.824,0.701 1.249,1.035 0.14,0.11 0.151,0.206 0.095,0.363 -0.337,0.94 -0.671,1.882 -0.989,2.829 -0.079,0.233 -0.094,0.488 -0.135,0.734 -0.003,0.023 0.017,0.05 0.036,0.1 0.054,-0.092 0.096,-0.163 0.138,-0.235 0.635,0.413 1.249,0.813 1.874,1.22 0.099,-0.087 0.184,-0.158 0.266,-0.233 0.757,-0.684 1.52,-1.362 2.265,-2.059 0.176,-0.163 0.3,-0.167 0.497,-0.049 0.411,0.245 0.831,0.477 1.262,0.685 0.205,0.098 0.254,0.218 0.223,0.427 -0.16,1.038 -0.315,2.077 -0.455,3.118 -0.014,0.102 0.06,0.285 0.141,0.321 0.704,0.313 1.419,0.6 2.134,0.897 0.699,-0.937 1.381,-1.841 2.051,-2.753 0.121,-0.165 0.224,-0.217 0.429,-0.146 0.471,0.162 0.951,0.303 1.433,0.43 0.202,0.054 0.267,0.145 0.275,0.356 0.043,1.03 0.111,2.06 0.159,3.09 0.011,0.232 0.105,0.346 0.331,0.389 0.631,0.118 1.26,0.239 1.886,0.379 0.21,0.047 0.307,-0.007 0.396,-0.2 0.433,-0.934 0.886,-1.859 1.32,-2.793 0.099,-0.212 0.196,-0.301 0.457,-0.255 0.47,0.082 0.951,0.115 1.429,0.139 0.215,0.011 0.295,0.089 0.345,0.291 0.29,1.178 0.446,1.798 0.747,2.973 0.03,0.12 0.066,0.239 0.1,0.359 0.02,-0.005 -0.02,0.004 0,0 l 0.207,-0.003 h 0.316 c 0.561,-0.002 1.122,-0.018 1.683,-10e-4 0.261,0.007 0.345,-0.103 0.401,-0.337 0.237,-0.981 0.501,-1.955 0.735,-2.937 0.062,-0.261 0.176,-0.364 0.443,-0.379 0.467,-0.026 0.934,-0.081 1.398,-0.14 0.204,-0.026 0.307,0.034 0.396,0.226 0.432,0.935 0.882,1.862 1.327,2.79 0.047,0.098 0.098,0.194 0.149,0.295 0.835,-0.165 1.641,-0.325 2.458,-0.487 0.062,-1.156 0.128,-2.276 0.178,-3.397 0.01,-0.214 0.057,-0.321 0.287,-0.377 0.475,-0.114 0.943,-0.258 1.404,-0.42 0.21,-0.073 0.322,-0.043 0.455,0.139 0.618,0.849 1.257,1.684 1.879,2.532 0.117,0.161 0.217,0.197 0.404,0.116 0.607,-0.263 1.22,-0.513 1.836,-0.755 0.202,-0.079 0.236,-0.187 0.203,-0.395 -0.164,-1.037 -0.306,-2.078 -0.461,-3.117 -0.029,-0.186 0.016,-0.296 0.196,-0.384 0.421,-0.207 0.839,-0.423 1.237,-0.669 0.238,-0.147 0.386,-0.142 0.599,0.059 0.81,0.761 1.642,1.497 2.491,2.264 0.616,-0.418 1.219,-0.836 1.833,-1.236 0.188,-0.122 0.223,-0.232 0.145,-0.446 C -0.653,11.528 -0.983,10.542 -1.34,9.565 -1.42,9.345 -1.383,9.222 -1.199,9.082 -0.81,8.785 -0.432,8.472 -0.069,8.143 0.094,7.995 0.209,8.013 0.379,8.116 1.278,8.658 2.187,9.184 3.085,9.728 3.255,9.831 3.364,9.827 3.504,9.683 3.973,9.199 4.448,8.722 4.931,8.253 5.067,8.12 5.065,8.02 4.971,7.862 4.419,6.944 3.883,6.017 3.332,5.099 3.245,4.954 3.238,4.861 3.355,4.727 3.691,4.343 4.018,3.95 4.329,3.546 4.462,3.372 4.577,3.337 4.786,3.414 5.77,3.774 6.764,4.11 7.748,4.471 7.949,4.544 8.055,4.513 8.169,4.334 8.503,3.81 8.843,3.288 9.205,2.782 9.37,2.55 9.367,2.403 9.163,2.187 8.463,1.444 7.793,0.674 7.102,-0.077 6.962,-0.229 6.935,-0.34 7.045,-0.526 c 0.254,-0.43 0.492,-0.87 0.713,-1.318 0.094,-0.19 0.196,-0.238 0.403,-0.205 0.935,0.148 1.873,0.28 2.811,0.41 0.577,0.08 0.581,0.074 0.8,-0.455 0.245,-0.59 0.484,-1.182 0.724,-1.771 -0.102,-0.081 -0.172,-0.139 -0.245,-0.194 -0.84,-0.63 -1.679,-1.263 -2.524,-1.886 -0.145,-0.107 -0.188,-0.202 -0.129,-0.38 0.155,-0.464 0.303,-0.931 0.421,-1.405 0.063,-0.254 0.18,-0.337 0.437,-0.346 1.019,-0.035 2.037,-0.098 3.055,-0.141 0.214,-0.01 0.321,-0.082 0.36,-0.308 0.112,-0.642 0.243,-1.282 0.376,-1.921 0.042,-0.201 -0.009,-0.305 -0.207,-0.398 -0.953,-0.44 -1.894,-0.904 -2.843,-1.351 -0.159,-0.075 -0.226,-0.154 -0.201,-0.346 0.063,-0.496 0.106,-0.995 0.139,-1.494 0.014,-0.215 0.09,-0.314 0.311,-0.367 1.019,-0.247 2.031,-0.522 3.049,-0.771 0.197,-0.048 0.268,-0.13 0.266,-0.327 -0.007,-0.653 -0.011,-1.306 0.005,-1.959 0.006,-0.254 -0.089,-0.349 -0.33,-0.406 -1.01,-0.242 -2.013,-0.51 -3.021,-0.759 -0.189,-0.046 -0.266,-0.132 -0.279,-0.328 -0.034,-0.509 -0.078,-1.018 -0.143,-1.524 -0.025,-0.193 0.042,-0.271 0.203,-0.346 0.959,-0.45 1.911,-0.914 2.87,-1.364 0.168,-0.078 0.224,-0.168 0.185,-0.351 -0.137,-0.659 -0.268,-1.319 -0.389,-1.981 -0.037,-0.207 -0.124,-0.274 -0.34,-0.282 -1.059,-0.043 -2.118,-0.111 -3.177,-0.16 -0.172,-0.008 -0.243,-0.067 -0.289,-0.234 -0.137,-0.501 -0.285,-1 -0.45,-1.493 -0.064,-0.191 -0.015,-0.287 0.14,-0.399 0.692,-0.505 1.376,-1.021 2.06,-1.538 0.226,-0.17 0.567,-0.32 0.627,-0.542 0.061,-0.223 -0.156,-0.526 -0.262,-0.79 -0.205,-0.506 -0.417,-1.011 -0.623,-1.506 -1.175,0.167 -2.305,0.323 -3.432,0.493 -0.169,0.025 -0.257,-0.004 -0.337,-0.161 -0.235,-0.464 -0.481,-0.922 -0.74,-1.373 -0.098,-0.17 -0.083,-0.279 0.05,-0.424 0.712,-0.773 1.407,-1.563 2.12,-2.334 0.156,-0.168 0.166,-0.289 0.039,-0.471 -0.372,-0.537 -0.735,-1.08 -1.089,-1.628 -0.109,-0.169 -0.212,-0.196 -0.399,-0.128 -0.986,0.358 -1.979,0.696 -2.964,1.054 -0.202,0.073 -0.327,0.059 -0.465,-0.122 -0.296,-0.39 -0.609,-0.768 -0.935,-1.133 -0.149,-0.166 -0.153,-0.286 -0.04,-0.474 0.544,-0.899 1.075,-1.806 1.601,-2.715 0.049,-0.085 0.081,-0.259 0.033,-0.309 -0.542,-0.578 -1.101,-1.14 -1.651,-1.702 -1.025,0.606 -2,1.179 -2.969,1.761 -0.162,0.097 -0.27,0.109 -0.424,-0.028 -0.372,-0.333 -0.76,-0.65 -1.156,-0.954 -0.173,-0.133 -0.212,-0.248 -0.135,-0.459 0.357,-0.976 0.685,-1.963 1.046,-2.938 0.085,-0.231 0.04,-0.348 -0.154,-0.472 -0.421,-0.268 -0.828,-0.56 -1.247,-0.831 -0.592,-0.382 -0.593,-0.377 -1.112,0.093 -0.74,0.67 -1.481,1.339 -2.219,2.005 -0.496,-0.268 -0.96,-0.551 -1.45,-0.773 -0.29,-0.132 -0.349,-0.289 -0.3,-0.586 0.166,-1.016 0.309,-2.037 0.448,-3.057 0.012,-0.083 -0.046,-0.232 -0.111,-0.26 -0.717,-0.312 -1.44,-0.607 -2.162,-0.905 -0.071,0.088 -0.123,0.149 -0.172,0.214 -0.629,0.842 -1.263,1.681 -1.883,2.53 -0.13,0.178 -0.245,0.218 -0.456,0.146 -0.462,-0.16 -0.931,-0.3 -1.404,-0.423 -0.219,-0.057 -0.274,-0.165 -0.283,-0.381 -0.046,-1.061 -0.114,-2.121 -0.166,-3.182 -0.008,-0.161 -0.058,-0.228 -0.222,-0.258 -0.681,-0.126 -1.36,-0.262 -2.037,-0.408 -0.196,-0.042 -0.266,0.05 -0.339,0.204 -0.452,0.96 -0.915,1.914 -1.366,2.874 -0.076,0.164 -0.156,0.22 -0.347,0.192 -0.484,-0.069 -0.972,-0.127 -1.46,-0.143 -0.26,-0.009 -0.345,-0.114 -0.402,-0.344 -0.239,-0.98 -0.491,-1.957 -0.749,-2.933 -0.022,-0.087 -0.116,-0.219 -0.179,-0.22 -0.824,-0.015 -1.648,-0.011 -2.478,-0.011 -0.277,1.082 -0.553,2.136 -0.812,3.195 -0.052,0.212 -0.132,0.298 -0.361,0.31 -0.488,0.024 -0.976,0.073 -1.459,0.147 -0.22,0.034 -0.307,-0.037 -0.392,-0.22 -0.483,-1.035 -0.975,-2.065 -1.465,-3.097 -0.042,-0.087 -0.088,-0.171 -0.133,-0.256 0.042,0.303 -0.15,0.324 -0.359,0.361 -0.541,0.097 -1.076,0.228 -1.619,0.31 -0.308,0.046 -0.389,0.191 -0.398,0.483 -0.032,1 -0.092,1.999 -0.138,2.999 -0.008,0.17 -0.024,0.306 -0.238,0.361 -0.512,0.133 -1.018,0.288 -1.522,0.449 -0.146,0.047 -0.236,0.045 -0.336,-0.09 -0.622,-0.847 -1.262,-1.681 -1.875,-2.534 -0.136,-0.189 -0.254,-0.23 -0.452,-0.148 -0.601,0.25 -1.202,0.505 -1.809,0.739 -0.22,0.085 -0.247,0.201 -0.216,0.418 0.15,1.05 0.282,2.103 0.407,3.156 0.011,0.09 -0.056,0.238 -0.131,0.282 -0.475,0.277 -0.959,0.539 -1.45,0.787 -0.081,0.04 -0.244,0.026 -0.31,-0.032 -0.768,-0.671 -1.527,-1.354 -2.281,-2.041 -0.062,-0.057 -0.073,-0.169 -0.116,-0.277 -0.278,-0.011 -0.278,-0.011 -0.617,0.218 -0.472,0.321 -0.938,0.652 -1.421,0.956 -0.216,0.135 -0.246,0.263 -0.161,0.496 0.36,0.986 0.705,1.978 1.041,2.972 0.032,0.096 0.003,0.271 -0.066,0.332 -0.419,0.373 -0.854,0.727 -1.292,1.078 -0.055,0.044 -0.18,0.068 -0.235,0.037 -0.915,-0.535 -1.841,-1.055 -2.724,-1.639 -0.228,-0.15 -0.404,-0.169 -0.535,-0.166 -0.082,0.155 -0.107,0.254 -0.17,0.315 -0.484,0.467 -0.974,0.926 -1.462,1.387 0.114,0.161 0.163,0.249 0.215,0.336 0.528,0.896 1.061,1.791 1.579,2.693 0.049,0.087 0.057,0.265 0.002,0.337 -0.335,0.437 -0.687,0.862 -1.05,1.276 -0.061,0.069 -0.218,0.122 -0.3,0.093 -0.965,-0.325 -1.921,-0.676 -2.885,-1.002 -0.265,-0.089 -0.441,-0.142 -0.432,-0.141 l -0.131,0.166 -0.011,0.016 c -0.414,0.637 -0.816,1.258 -1.223,1.885 0.093,0.107 0.172,0.2 0.253,0.29 0.684,0.759 1.364,1.519 2.055,2.271 0.13,0.141 0.156,0.247 0.054,0.422 -0.261,0.449 -0.507,0.908 -0.742,1.372 -0.079,0.155 -0.161,0.192 -0.332,0.166 -1.027,-0.156 -2.059,-0.285 -3.084,-0.453 -0.271,-0.045 -0.39,0.043 -0.481,0.27 -0.235,0.587 -0.47,1.174 -0.724,1.753 -0.087,0.2 -0.045,0.303 0.126,0.428 0.839,0.615 1.663,1.25 2.503,1.863 0.19,0.139 0.228,0.261 0.151,0.483 -0.154,0.442 -0.282,0.895 -0.4,1.348 -0.057,0.216 -0.147,0.313 -0.388,0.322 -1.029,0.041 -2.056,0.111 -3.085,0.156 -0.178,0.007 -0.312,0.066 -0.346,0.219 -0.163,0.755 -0.306,1.514 -0.457,2.274 1.05,0.503 2.068,0.994 3.089,1.478 0.153,0.073 0.245,0.144 0.22,0.341 -0.067,0.515 -0.126,1.033 -0.16,1.552 -0.014,0.207 -0.105,0.275 -0.283,0.319 -0.8,0.199 -1.597,0.411 -2.397,0.609 -0.542,0.133 -0.36,0.09 -0.904,0.215"
             style="fill:#af2f40;fill-opacity:1;fill-rule:nonzero;stroke:none"
             id="path20" />
        </g>
        <path
           d="m 45.676,31.917 h 3.4 v 1.66 h -3.4 z m -0.737,1.652 H 41.523 V 31.92 h 3.416 z m 4.142,-2.39 h -3.406 v -1.73 h 3.406 z m -7.572,-1.731 h 3.425 v 1.724 h -3.425 z m 7.576,-0.727 h -3.406 v -1.81 h 3.406 z m -4.155,0.004 h -3.415 v -1.818 h 3.415 z m 12.502,2.934 c -0.191,-0.364 -0.33,-0.67 -0.507,-0.951 -0.089,-0.142 -0.246,-0.327 -0.377,-0.331 -0.129,-0.003 -0.299,0.174 -0.389,0.313 -0.191,0.293 -0.342,0.612 -0.535,0.968 -0.197,-0.379 -0.346,-0.704 -0.532,-1.006 -0.076,-0.125 -0.229,-0.277 -0.349,-0.279 -0.121,-0.002 -0.282,0.143 -0.36,0.265 -0.196,0.308 -0.356,0.639 -0.577,1.045 -0.137,-0.593 -0.555,-0.484 -0.925,-0.486 -0.775,-0.002 -1.549,-10e-4 -2.324,-10e-4 H 49.79 c 0,-0.479 0,-0.925 10e-4,-1.372 0,-0.396 0.001,-0.384 0.401,-0.4 0.439,-0.018 0.853,-0.047 1.016,0.512 0.04,0.136 0.251,0.309 0.382,0.307 0.13,-10e-4 0.291,-0.18 0.379,-0.319 0.181,-0.286 0.322,-0.598 0.508,-0.952 0.2,0.384 0.349,0.709 0.536,1.011 0.075,0.121 0.232,0.264 0.353,0.264 0.121,0 0.279,-0.141 0.357,-0.262 0.195,-0.304 0.354,-0.632 0.559,-1.008 0.188,0.36 0.332,0.673 0.513,0.964 0.082,0.132 0.241,0.31 0.356,0.303 0.139,-0.007 0.307,-0.163 0.396,-0.298 0.193,-0.292 0.343,-0.612 0.555,-1.003 0.121,0.486 0.421,0.49 0.746,0.487 0.998,-0.009 1.997,-0.004 2.996,-0.002 0.12,0 0.239,0.01 0.372,0.016 v 1.752 c -0.202,0 -0.387,-0.023 -0.564,0.005 -0.486,0.078 -0.81,-0.074 -0.982,-0.562 -0.043,-0.123 -0.234,-0.268 -0.354,-0.266 -0.121,0.002 -0.274,0.153 -0.35,0.277 -0.186,0.302 -0.336,0.627 -0.534,1.009 m 2.787,1.914 H 49.81 v -1.677 h 0.347 c 0.765,0 1.531,0.032 2.294,-0.011 0.502,-0.028 0.874,0.056 1.023,0.589 0.009,0.029 0.028,0.055 0.046,0.08 0.168,0.236 0.447,0.241 0.603,-0.007 0.152,-0.241 0.276,-0.499 0.414,-0.749 0.055,-0.099 0.115,-0.195 0.195,-0.331 0.168,0.31 0.297,0.564 0.441,0.81 0.109,0.185 0.157,0.44 0.447,0.446 0.293,0.006 0.345,-0.247 0.453,-0.434 0.15,-0.26 0.292,-0.526 0.459,-0.829 0.179,0.331 0.317,0.629 0.496,0.898 0.096,0.146 0.263,0.338 0.4,0.338 0.135,0.001 0.305,-0.188 0.402,-0.333 0.182,-0.271 0.322,-0.569 0.517,-0.923 0.135,0.438 0.415,0.471 0.732,0.459 0.374,-0.014 0.748,-0.003 1.14,-0.003 z m -6.843,-4.402 c -0.2,-0.368 -0.352,-0.68 -0.537,-0.971 -0.08,-0.125 -0.235,-0.289 -0.347,-0.283 -0.134,0.008 -0.295,0.155 -0.379,0.284 -0.194,0.296 -0.347,0.617 -0.562,1.011 -0.104,-0.502 -0.43,-0.48 -0.758,-0.471 -0.322,0.009 -0.644,0.002 -0.978,0.002 v -1.828 h 10.402 v 1.828 H 59.87 c -0.836,0 -1.674,-0.031 -2.508,0.012 -0.461,0.024 -0.743,-0.095 -0.91,-0.537 -0.051,-0.134 -0.237,-0.298 -0.364,-0.3 -0.125,-0.002 -0.286,0.161 -0.372,0.292 -0.191,0.293 -0.345,0.611 -0.537,0.959 -0.196,-0.36 -0.351,-0.681 -0.541,-0.98 -0.079,-0.123 -0.234,-0.271 -0.356,-0.273 -0.12,-0.001 -0.277,0.146 -0.356,0.269 -0.192,0.296 -0.348,0.616 -0.55,0.986 M 25.024,28.95 c 0.129,0.45 0.399,0.483 0.722,0.482 2.468,-0.009 4.936,0.01 7.403,-0.018 0.482,-0.005 0.782,0.107 0.957,0.566 0.047,0.123 0.228,0.266 0.35,0.267 0.121,0.002 0.281,-0.138 0.359,-0.258 0.194,-0.302 0.351,-0.628 0.548,-0.988 0.199,0.366 0.354,0.688 0.546,0.986 0.077,0.121 0.236,0.262 0.357,0.261 0.122,-0.001 0.277,-0.145 0.355,-0.266 0.191,-0.295 0.346,-0.614 0.544,-0.977 0.183,0.333 0.321,0.625 0.498,0.892 0.099,0.146 0.245,0.314 0.401,0.356 0.247,0.066 0.325,-0.19 0.422,-0.364 0.156,-0.28 0.306,-0.564 0.509,-0.94 0.099,0.51 0.418,0.486 0.735,0.479 0.344,-0.006 0.688,-0.001 1.041,-0.001 v 1.769 h -0.382 c -2.019,0 -4.038,-0.011 -6.057,0.01 -0.404,0.005 -0.666,-0.077 -0.822,-0.477 -0.06,-0.154 -0.257,-0.348 -0.394,-0.35 -0.135,-0.001 -0.304,0.195 -0.402,0.343 -0.18,0.272 -0.32,0.571 -0.503,0.909 -0.203,-0.374 -0.354,-0.687 -0.54,-0.977 -0.079,-0.125 -0.237,-0.288 -0.349,-0.28 -0.134,0.008 -0.293,0.157 -0.378,0.287 -0.192,0.296 -0.345,0.618 -0.535,0.967 -0.172,-0.313 -0.302,-0.591 -0.472,-0.842 -0.111,-0.165 -0.262,-0.376 -0.429,-0.414 -0.265,-0.06 -0.342,0.233 -0.449,0.424 -0.147,0.259 -0.287,0.523 -0.478,0.873 -0.114,-0.488 -0.42,-0.476 -0.74,-0.475 -2.488,0.005 -4.976,-0.011 -7.465,0.015 -0.439,0.004 -0.695,-0.105 -0.86,-0.516 -0.057,-0.142 -0.253,-0.318 -0.383,-0.316 -0.13,0.002 -0.289,0.187 -0.378,0.328 -0.18,0.287 -0.321,0.598 -0.508,0.956 -0.201,-0.388 -0.349,-0.713 -0.535,-1.015 -0.076,-0.124 -0.233,-0.273 -0.353,-0.273 -0.121,-0.001 -0.279,0.147 -0.357,0.27 -0.196,0.308 -0.356,0.639 -0.558,1.011 -0.192,-0.367 -0.345,-0.698 -0.535,-1.007 -0.076,-0.123 -0.232,-0.273 -0.353,-0.274 -0.12,0 -0.277,0.147 -0.356,0.27 -0.196,0.304 -0.356,0.632 -0.566,1.015 -0.14,-0.382 -0.373,-0.509 -0.708,-0.465 -0.161,0.021 -0.327,0.003 -0.49,0.003 H 11.47 v -1.368 c 10e-4,-0.4 10e-4,-0.401 0.401,-0.401 2.457,0 4.915,0.012 7.373,-0.011 0.443,-0.005 0.72,0.098 0.89,0.523 0.055,0.139 0.255,0.308 0.384,0.304 0.131,-0.004 0.289,-0.183 0.378,-0.322 0.181,-0.285 0.322,-0.594 0.505,-0.941 0.204,0.376 0.36,0.697 0.551,0.997 0.078,0.122 0.238,0.277 0.351,0.269 0.133,-0.008 0.294,-0.153 0.375,-0.282 0.186,-0.295 0.332,-0.617 0.527,-0.991 0.197,0.381 0.345,0.703 0.53,1.003 0.075,0.123 0.229,0.268 0.351,0.271 0.12,0.003 0.282,-0.136 0.36,-0.256 0.196,-0.306 0.356,-0.635 0.578,-1.041 m -5.864,2.485 c 0.133,0.48 0.463,0.465 0.802,0.464 2.56,-0.005 5.119,10e-4 7.679,-0.009 0.239,-0.001 0.385,0.064 0.467,0.286 0.028,0.076 0.063,0.158 0.119,0.213 0.122,0.119 0.259,0.31 0.389,0.31 0.13,-10e-4 0.295,-0.176 0.383,-0.315 0.18,-0.284 0.319,-0.595 0.504,-0.95 0.208,0.38 0.364,0.7 0.555,0.998 0.079,0.122 0.237,0.277 0.35,0.27 0.133,-0.009 0.295,-0.153 0.375,-0.281 0.187,-0.299 0.333,-0.624 0.525,-0.994 0.191,0.366 0.334,0.68 0.516,0.971 0.082,0.132 0.242,0.308 0.358,0.301 0.139,-0.007 0.305,-0.164 0.395,-0.299 0.191,-0.288 0.341,-0.605 0.562,-1.008 0.118,0.516 0.436,0.507 0.767,0.507 2.162,-0.005 4.323,-0.003 6.485,-0.003 h 0.375 v 1.683 H 11.471 c 0,-0.487 0.006,-0.954 -0.004,-1.422 -0.004,-0.199 0.065,-0.268 0.265,-0.264 0.54,0.01 1.083,0.038 1.62,-0.008 0.472,-0.04 0.766,0.097 0.934,0.552 0.046,0.122 0.229,0.264 0.35,0.265 0.121,0.002 0.282,-0.137 0.359,-0.257 0.194,-0.3 0.351,-0.625 0.548,-0.986 0.191,0.349 0.334,0.654 0.519,0.931 0.09,0.137 0.257,0.311 0.387,0.309 0.131,-0.002 0.293,-0.178 0.384,-0.316 0.185,-0.282 0.331,-0.59 0.516,-0.927 0.208,0.386 0.376,0.711 0.559,1.029 0.19,0.334 0.491,0.334 0.682,10e-4 0.182,-0.318 0.35,-0.644 0.57,-1.051 m 21.606,-4.531 v 1.839 c -0.2,0 -0.375,-0.023 -0.543,0.004 -0.443,0.072 -0.721,-0.085 -0.888,-0.513 -0.055,-0.142 -0.255,-0.317 -0.384,-0.314 -0.131,0.004 -0.289,0.189 -0.378,0.33 -0.18,0.287 -0.322,0.598 -0.504,0.947 -0.21,-0.386 -0.369,-0.717 -0.567,-1.024 -0.077,-0.122 -0.237,-0.252 -0.365,-0.258 -0.108,-0.005 -0.259,0.143 -0.33,0.26 -0.188,0.313 -0.344,0.646 -0.534,1.013 -0.073,-0.125 -0.126,-0.209 -0.172,-0.296 -0.133,-0.253 -0.256,-0.511 -0.397,-0.759 -0.181,-0.319 -0.472,-0.32 -0.662,-0.005 -0.089,0.148 -0.167,0.304 -0.25,0.456 -0.102,0.188 -0.205,0.376 -0.35,0.643 -0.13,-0.46 -0.401,-0.49 -0.723,-0.489 -2.478,0.009 -4.957,-0.009 -7.435,0.018 -0.458,0.004 -0.742,-0.097 -0.908,-0.539 -0.05,-0.134 -0.238,-0.298 -0.364,-0.299 -0.126,-0.002 -0.289,0.161 -0.374,0.292 -0.19,0.295 -0.343,0.614 -0.533,0.965 -0.198,-0.366 -0.353,-0.687 -0.545,-0.986 -0.078,-0.123 -0.233,-0.272 -0.355,-0.273 -0.12,-0.001 -0.277,0.147 -0.356,0.269 -0.191,0.298 -0.346,0.618 -0.548,0.987 -0.194,-0.356 -0.346,-0.677 -0.538,-0.971 -0.084,-0.129 -0.246,-0.276 -0.379,-0.284 -0.113,-0.006 -0.269,0.157 -0.348,0.281 -0.189,0.298 -0.343,0.618 -0.551,1.001 -0.128,-0.46 -0.426,-0.461 -0.749,-0.46 -2.621,0.007 -5.242,0.004 -7.863,0.004 h -0.38 v -1.839 z m -0.006,7.399 c 0.097,0.615 0.105,0.622 0.699,0.622 h 7.588 c 0.644,0 0.644,0 0.794,-0.622 h 0.355 10.157 c 0.491,0 0.573,-0.078 0.573,-0.565 10e-4,-2.328 10e-4,-4.655 0,-6.982 0,-0.503 -0.077,-0.576 -0.595,-0.576 H 50.203 49.789 c -0.01,-0.11 -0.019,-0.197 -0.027,-0.285 -0.019,-0.204 -0.135,-0.313 -0.333,-0.333 -0.091,-0.009 -0.184,-0.004 -0.276,-0.004 h -7.71 c -0.598,0 -0.611,0.011 -0.698,0.622 H 40.332 11.419 c -0.576,0 -0.632,0.055 -0.632,0.625 0,0.532 0.03,1.065 -0.006,1.594 -0.056,0.817 0.049,1.631 0.004,2.447 -0.011,0.2 -0.073,0.399 -0.073,0.598 -10e-4,0.198 0.068,0.395 0.072,0.593 0.01,0.572 0.003,1.144 0.003,1.716 10e-4,0.47 0.082,0.55 0.552,0.55 h 29.004 z"
           style="fill:#af2f40;fill-opacity:1;fill-rule:nonzero;stroke:none"
           id="path22" />
      </g>
    </g>
  </g>
</svg>
